<svg version="1.1" id="mlx" xmlns="http://www.w3.org/2000/svg" xmlns:xlink="http://www.w3.org/1999/xlink" x="0px" y="0px"
		width="274px" height="39px" viewBox="0 0 274 39" enable-background="new 0 0 274 39" xml:space="preserve">
	<g id="logo_x5F_square_x5F_blue-bg">
		<g id="op3_1_" display="none">
		</g>
		<g id="op4_1_" display="none">
		</g>
		<g id="op2_1_" display="none">
		</g>
		<g id="op1_1_">
			<g id="m">
			</g>
			<g>
				<g id="blocks_7_">
					<rect x="130" y="28" fill="#FFFFFF" width="4" height="4"/>
					<rect x="130" y="23" fill="#FFFFFF" width="4" height="4"/>
					<rect x="135" y="23" fill="#FFFFFF" width="4" height="4"/>
					<rect x="130" y="33" fill="#FFFFFF" width="4" height="4"/>
					<rect x="135" y="18" fill="#FFFFFF" width="4" height="4"/>
					<rect x="125" y="33" fill="#FFFFFF" width="4" height="4"/>
					<rect x="120" y="33" fill="#FFFFFF" width="4" height="4"/>
					<rect x="125" y="28" fill="#FFFFFF" width="4" height="4"/>
					<rect x="135" y="33" fill="#FFFFFF" width="4" height="4"/>
					<rect x="135" y="28" fill="#FFFFFF" width="4" height="4"/>
				</g>
				<path fill="#FFFFFF" d="M186.005,28.127h-15.074c0.218,1.329,0.8,2.387,1.745,3.171c0.945,0.785,2.15,1.177,3.618,1.177
					c1.753,0,3.259-0.612,4.52-1.838l3.953,1.855c-0.985,1.398-2.165,2.432-3.54,3.103s-3.008,1.005-4.898,1.005
					c-2.934,0-5.323-0.924-7.167-2.775c-1.846-1.85-2.768-4.168-2.768-6.952c0-2.853,0.92-5.222,2.759-7.107
					c1.839-1.885,4.145-2.827,6.918-2.827c2.944,0,5.339,0.942,7.185,2.827c1.844,1.885,2.767,4.374,2.767,7.468L186.005,28.127z
					 M181.312,24.432c-0.311-1.042-0.921-1.891-1.834-2.544c-0.912-0.653-1.971-0.979-3.177-0.979c-1.309,0-2.456,0.367-3.442,1.1
					c-0.62,0.458-1.194,1.266-1.722,2.423H181.312z"/>
				<path fill="#FFFFFF" d="M190.37,10.527h4.692v6.892h2.784v4.039h-2.784v14.661h-4.692V21.458h-2.406v-4.039h2.406V10.527z"/>
				<path fill="#FFFFFF" d="M214.157,17.419h4.692v18.7h-4.692v-1.977c-0.915,0.871-1.834,1.498-2.755,1.882s-1.92,0.575-2.995,0.575
					c-2.415,0-4.504-0.936-6.267-2.81s-2.644-4.202-2.644-6.987c0-2.887,0.852-5.253,2.558-7.098
					c1.705-1.845,3.776-2.767,6.215-2.767c1.121,0,2.174,0.212,3.158,0.636c0.984,0.424,1.894,1.06,2.729,1.908V17.419z
					 M209.225,21.269c-1.45,0-2.654,0.513-3.614,1.538c-0.959,1.026-1.438,2.341-1.438,3.945c0,1.616,0.488,2.945,1.464,3.987
					c0.977,1.043,2.179,1.563,3.606,1.563c1.474,0,2.695-0.512,3.665-1.537c0.971-1.025,1.457-2.369,1.457-4.031
					c0-1.627-0.486-2.945-1.457-3.953C211.938,21.773,210.71,21.269,209.225,21.269z"/>
				<path fill="#FFFFFF" d="M223.542,10.2h2.406v25.919h-2.406V10.2z"/>
				<path fill="#FFFFFF" d="M230.95,17.419h2.406v3.352c0.962-1.283,2.027-2.243,3.196-2.879c1.169-0.636,2.44-0.954,3.815-0.954
					c1.398,0,2.639,0.355,3.722,1.065c1.083,0.71,1.882,1.667,2.397,2.87s0.773,3.077,0.773,5.621v9.625h-2.406v-8.92
					c0-2.154-0.089-3.592-0.268-4.314c-0.279-1.238-0.813-2.168-1.604-2.793c-0.79-0.625-1.822-0.937-3.095-0.937
					c-1.455,0-2.759,0.481-3.91,1.444c-1.152,0.962-1.911,2.154-2.277,3.575c-0.23,0.928-0.344,2.624-0.344,5.088v6.857h-2.406
					V17.419z"/>
				<path fill="#FFFFFF" d="M250.286,17.419h2.887l4.974,6.841l4.921-6.841h2.894l-6.365,8.834l7.173,9.866h-2.931l-5.692-7.854
					l-5.658,7.854h-2.872l7.085-9.849L250.286,17.419z"/>
				<g>
					<path fill="#FFFFFF" d="M162.238,20.13c-0.441-0.997-1.217-1.805-2.227-2.423s-2.202-0.928-3.532-0.928
						c-1.285,0-2.48,0.287-3.564,0.859c-1.084,0.573-2.005,1.41-2.75,2.509c-0.573-1.1-1.332-1.936-2.273-2.509
						c-0.939-0.573-1.997-0.859-3.165-0.859c-1.159,0-2.236,0.218-3.217,0.653c-0.912,0.405-2.51,1.013-2.51,1.806V22h2.032
						c0.562,0,1.174-0.739,1.841-0.739c0.701,0,1.298,0.073,1.792,0.439c0.494,0.367,0.792,0.871,1.038,1.621
						c0.248,0.751,0.297,1.908,0.297,3.581V37h5v-9.479c0-1.788,0.092-3.085,0.4-3.893c0.311-0.808,0.75-1.44,1.387-1.899
						c0.636-0.458,1.339-0.688,2.14-0.688c1.055,0,1.8,0.375,2.327,1.125c0.527,0.751,0.746,2.186,0.746,4.306V37h5V24.994
						C163,22.749,162.68,21.127,162.238,20.13z"/>
					<path fill="#FFFFFF" d="M139,23v1.988c0-0.508,0.18-0.636,0.309-0.98c0.195-0.517,0.466-0.008,0.783-1.008H139z"/>
				</g>
			</g>
			<g>
				<g>
					<defs>
						<rect id="SVGID_5_" x="1.269" y="1.041" width="111.461" height="35.918"/>
					</defs>
					<clipPath id="SVGID_2_">
						<use xlink:href="#SVGID_5_"  overflow="visible"/>
					</clipPath>
					<path clip-path="url(#SVGID_2_)" fill="#FFFFFF" d="M1.696,7.125l25.467,0.079v7.526c0.041,0.468-0.544,0.39-0.662-0.078
						c-0.233-1.209-2.34-4.173-2.807-4.446H13.046v9.165h8.971c0.622-0.233,1.678-2.027,2.378-3.822
						c0.235-0.663,0.702-0.232,0.702-0.078c-0.117,2.925-0.117,8.346-0.117,10.529c0.079,0.82-0.35,1.054-0.585,0.312
						c-0.233-0.702-1.521-3.237-2.34-3.899h-9.009v10.453H24.63c0.662-0.469,2.34-4.174,2.533-5.149
						c0.041-0.39,0.742-0.39,0.742-0.079v8.699L9.849,36.062c-3.705,0-4.603,0-8.152,0.312c-0.585,0.078-0.585-0.779-0.116-0.938
						c3.979-1.91,4.445-0.857,4.445-6.551V13.248c0-4.25-1.169-4.095-4.445-5.342C1.229,7.827,1.424,7.204,1.696,7.125L1.696,7.125z"
						/>
					<path clip-path="url(#SVGID_2_)" fill="#FFFFFF" d="M33.404,6.968l11.817,0.235l9.087,18.642l9.398-18.408c0,0,7.372,0,7.956,0
						c0.701,0,3.236-0.233,3.626-0.312c0.47-0.077,0.547,0.702,0.157,0.897c-0.272,0.156-4.252,1.794-4.602,2.378l2.339,22.698
						c0.351,0.781,4.329,2.418,4.992,2.574c0.508,0.078,0.312,0.664,0.079,0.664c-2.496-0.195-13.963-0.195-16.421,0
						c-0.272,0-1.285-0.43-0.195-0.779c1.328-0.391,3.94-1.289,4.524-2.264L64.525,13.52L53.217,36.336h-1.912L41.049,13.988
						l-1.794,19.11c0.779,1.482,4.133,2.146,4.562,2.34c0.467,0.119,0.467,0.742,0.116,0.703c-2.457-0.234-11.622-0.078-12.635,0.078
						c-0.469,0.117-1.404-0.547-0.235-0.896c3.198-1.014,4.291-0.078,5.031-7.527l1.912-16.38c0.312-2.653-3.198-3.004-4.721-3.589
						C33.054,7.748,32.78,6.968,33.404,6.968L33.404,6.968z"/>
					<path clip-path="url(#SVGID_2_)" fill="#FFFFFF" d="M101.732,14.457l0.234-7.488c-3.355-0.428-11.583-1.794-18.487,3.237
						c-7.098,5.226-9.008,18.603,0.156,24.611c6.163,4.016,17.395,1.246,18.213,0.855c0.273-0.193,0.702-0.428,0.702-0.74
						c0-0.352,0.038-7.02,0.038-7.372c0-0.312-0.467-0.233-0.701,0.077c-0.233,0.312-1.443,5.111-2.651,5.736
						c-2.652,1.324-8.97,2.143-12.167-4.486c-2.186-4.407-2.302-10.375,0.856-15.795c3.275-5.654,9.36-4.017,10.062-3.588
						c1.404,0.779,2.223,2.613,2.808,4.875C101.108,15.316,101.654,15.12,101.732,14.457L101.732,14.457z"/>
					<path clip-path="url(#SVGID_2_)" fill="#FFFFFF" d="M103.994,3.108c3.47-3.16,6.513-2.027,7.565-0.976
						c1.054,1.053,1.754,3.393-0.701,5.89c-1.287,1.209-3.822,3.159-3.822,3.159s3.978,0,3.938,0c0.43-0.04,1.132-1.444,1.405-1.873
						c0.116-0.233,0.35-0.155,0.35,0.195c0,0.312,0,4.173,0,4.173c-1.17-0.078-7.956-0.078-9.008-0.078v-1.403
						c1.754-1.404,3.51-3.354,4.797-4.991c1.326-1.638,1.053-6.007-3.51-3.434C104.307,4.161,103.76,3.77,103.994,3.108
						L103.994,3.108z"/>
				</g>
				<path fill="#FFFFFF" d="M106.529,32.084h0.233c0.351,0,0.701-0.115,0.701-0.428c0-0.195-0.232-0.43-0.701-0.43
					c-0.116,0-0.193,0-0.233,0V32.084L106.529,32.084z M106.529,33.527h-0.468v-2.535c0.233-0.076,0.468-0.117,0.739-0.117
					c0.431,0,0.663,0.117,0.781,0.195c0.234,0.117,0.234,0.273,0.234,0.547c0,0.311-0.157,0.545-0.468,0.623l0,0
					c0.233,0.041,0.39,0.234,0.468,0.625c0,0.391,0.078,0.545,0.117,0.662h-0.47c0-0.117-0.038-0.352-0.115-0.662
					c-0.079-0.354-0.235-0.469-0.586-0.469h-0.233V33.527L106.529,33.527z M106.959,30.252c-1.015,0-1.835,0.818-1.835,1.91
					c0,1.094,0.82,1.949,1.835,1.949c0.975,0,1.792-0.855,1.792-1.91C108.751,31.07,107.934,30.252,106.959,30.252L106.959,30.252
					L106.959,30.252z M106.959,29.9c1.208,0,2.261,1.016,2.261,2.262c0,1.287-1.053,2.301-2.261,2.301
					c-1.25,0-2.302-1.014-2.302-2.301C104.657,30.916,105.709,29.9,106.959,29.9L106.959,29.9L106.959,29.9z"/>
			</g>
		</g>
	</g>
</svg>