<?xml version="1.0" encoding="utf-8"?>
<!-- Generator: Adobe Illustrator 16.0.0, SVG Export Plug-In . SVG Version: 6.00 Build 0)  -->
<!DOCTYPE svg PUBLIC "-//W3C//DTD SVG 1.1//EN" "http://www.w3.org/Graphics/SVG/1.1/DTD/svg11.dtd">
<svg version="1.1" xmlns="http://www.w3.org/2000/svg" xmlns:xlink="http://www.w3.org/1999/xlink" x="0px" y="0px"
	 width="325.983px" height="28.515px" viewBox="0 0 325.983 28.515" enable-background="new 0 0 325.983 28.515"
	 xml:space="preserve">
<g id="mlx">
	<g id="logo_x5F_square_x5F_blue-bg">
		<g id="op3_1_" display="none">
		</g>
		<g id="op4_1_" display="none">
		</g>
		<g id="op2_1_" display="none">
		</g>
		<g id="op1_1_">
			<g id="m">
			</g>
			<g>
				<g id="blocks_12_">
					<rect x="182.649" y="18.724" fill="#FFFFFF" width="4" height="4"/>
					<rect x="182.649" y="13.724" fill="#FFFFFF" width="4" height="4"/>
					<rect x="187.649" y="13.724" fill="#FFFFFF" width="4" height="4"/>
					<rect x="182.649" y="23.724" fill="#FFFFFF" width="4" height="4"/>
					<rect x="187.649" y="8.724" fill="#FFFFFF" width="4" height="4"/>
					<rect x="177.649" y="23.724" fill="#FFFFFF" width="4" height="4"/>
					<rect x="172.649" y="23.724" fill="#FFFFFF" width="4" height="4"/>
					<rect x="177.649" y="18.724" fill="#FFFFFF" width="4" height="4"/>
					<rect x="187.649" y="23.724" fill="#FFFFFF" width="4" height="4"/>
					<rect x="187.649" y="18.724" fill="#FFFFFF" width="4" height="4"/>
				</g>
				<path fill="#FFFFFF" d="M238.654,18.851H223.58c0.218,1.329,0.8,2.387,1.745,3.171c0.945,0.785,2.15,1.177,3.618,1.177
					c1.753,0,3.259-0.612,4.52-1.838l3.953,1.855c-0.985,1.398-2.165,2.432-3.54,3.103s-3.008,1.005-4.898,1.005
					c-2.934,0-5.323-0.924-7.167-2.775c-1.846-1.85-2.768-4.168-2.768-6.952c0-2.853,0.92-5.222,2.759-7.106
					s4.145-2.828,6.918-2.828c2.944,0,5.339,0.943,7.185,2.828c1.844,1.885,2.767,4.373,2.767,7.467L238.654,18.851z
					 M233.962,15.155c-0.311-1.043-0.921-1.891-1.834-2.544c-0.912-0.653-1.971-0.979-3.177-0.979c-1.309,0-2.456,0.367-3.442,1.1
					c-0.62,0.459-1.194,1.267-1.722,2.424H233.962z"/>
				<path fill="#FFFFFF" d="M243.02,1.251h4.692v6.892h2.784v4.039h-2.784v14.661h-4.692V12.182h-2.406V8.143h2.406V1.251z"/>
				<path fill="#FFFFFF" d="M266.807,8.143h4.692v18.7h-4.692v-1.977c-0.915,0.871-1.834,1.498-2.755,1.882s-1.92,0.575-2.995,0.575
					c-2.415,0-4.504-0.936-6.267-2.81s-2.644-4.202-2.644-6.987c0-2.887,0.852-5.253,2.558-7.098
					c1.705-1.845,3.776-2.768,6.215-2.768c1.121,0,2.174,0.213,3.158,0.637s1.894,1.06,2.729,1.907V8.143z M261.874,11.993
					c-1.45,0-2.654,0.512-3.614,1.537c-0.959,1.026-1.438,2.342-1.438,3.945c0,1.615,0.488,2.945,1.464,3.987
					c0.977,1.043,2.179,1.563,3.606,1.563c1.474,0,2.695-0.512,3.665-1.537c0.971-1.025,1.457-2.369,1.457-4.031
					c0-1.627-0.486-2.944-1.457-3.953C264.587,12.497,263.359,11.993,261.874,11.993z"/>
				<path fill="#FFFFFF" d="M276.191,0.924h2.406v25.919h-2.406V0.924z"/>
				<path fill="#FFFFFF" d="M283.6,8.143h2.406v3.352c0.962-1.283,2.027-2.243,3.196-2.879s2.44-0.954,3.815-0.954
					c1.398,0,2.639,0.355,3.722,1.066c1.083,0.71,1.882,1.666,2.397,2.869s0.773,3.077,0.773,5.621v9.625h-2.406v-8.92
					c0-2.154-0.089-3.593-0.268-4.314c-0.279-1.238-0.813-2.168-1.604-2.793c-0.79-0.625-1.822-0.938-3.095-0.938
					c-1.455,0-2.759,0.482-3.91,1.444c-1.152,0.962-1.911,2.154-2.277,3.575c-0.23,0.928-0.344,2.624-0.344,5.088v6.857H283.6V8.143
					z"/>
				<path fill="#FFFFFF" d="M302.936,8.143h2.887l4.974,6.841l4.921-6.841h2.894l-6.365,8.834l7.173,9.866h-2.931l-5.692-7.854
					l-5.658,7.854h-2.872l7.085-9.85L302.936,8.143z"/>
				<g>
					<path fill="#FFFFFF" d="M214.888,10.854c-0.441-0.997-1.217-1.805-2.227-2.423c-1.01-0.619-2.202-0.929-3.532-0.929
						c-1.285,0-2.48,0.286-3.564,0.859s-2.005,1.409-2.75,2.509c-0.573-1.1-1.332-1.936-2.273-2.509
						c-0.939-0.573-1.997-0.859-3.165-0.859c-1.159,0-2.236,0.218-3.217,0.653c-0.912,0.405-2.51,1.014-2.51,1.806v2.763h2.032
						c0.562,0,1.174-0.738,1.841-0.738c0.701,0,1.298,0.072,1.792,0.439s0.792,0.87,1.038,1.62c0.248,0.751,0.297,1.907,0.297,3.581
						v10.098h5v-9.479c0-1.788,0.092-3.085,0.4-3.894c0.311-0.807,0.75-1.439,1.387-1.898c0.636-0.459,1.339-0.688,2.14-0.688
						c1.055,0,1.8,0.375,2.327,1.125c0.527,0.752,0.746,2.187,0.746,4.307v10.527h5V15.718
						C215.649,13.472,215.329,11.851,214.888,10.854z"/>
					<path fill="#FFFFFF" d="M191.649,13.724v1.988c0-0.508,0.18-0.636,0.309-0.98c0.195-0.517,0.466-0.008,0.783-1.008H191.649z"/>
				</g>
			</g>
		</g>
	</g>
	<g id="favicon_x5F_square_x5F_blue_x5F_bg">
	</g>
</g>
<g id="Layer_9">
	<g>
		<path fill-rule="evenodd" clip-rule="evenodd" fill="#FFFFFF" d="M0,1.652c3.425,0,6.851-0.049,10.273,0.011
			c4.805,0.085,8.431,2.268,10.911,6.367c0.561,0.927,0.938,1.937,1.242,3.027c0.48-0.372,0.939-0.726,1.395-1.081
			c4.208-3.287,8.416-6.576,12.62-9.869c0.181-0.142,0.29-0.145,0.473,0c1.203,0.956,2.413,1.902,3.631,2.839
			c0.199,0.154,0.17,0.222-0.006,0.359c-4.369,3.407-8.735,6.819-13.103,10.23c-0.033,0.026-0.065,0.054-0.103,0.075
			c-0.211,0.125-0.217,0.227-0.008,0.383c0.71,0.536,1.402,1.097,2.11,1.637c0.232,0.177,0.444,0.508,0.71,0.485
			c0.241-0.022,0.461-0.31,0.686-0.485c4.25-3.319,8.5-6.64,12.75-9.96c0.113-0.09,0.199-0.2,0.374-0.061
			c1.278,1.013,2.565,2.016,3.85,3.023c0.016,0.012,0.025,0.033,0.059,0.074c-4.539,3.547-9.078,7.095-13.643,10.661
			c0.603,0.472,1.185,0.927,1.767,1.382c0.351,0.275,0.713,0.536,1.048,0.826c0.178,0.154,0.287,0.122,0.455-0.01
			c3.109-2.438,6.225-4.87,9.339-7.304c1.286-1.004,2.569-2.013,3.861-3.01c0.171-0.131,0.229-0.268,0.229-0.478
			c-0.006-2.926,0-5.853-0.011-8.778c-0.001-0.268,0.047-0.357,0.341-0.354c1.687,0.017,3.372,0.015,5.057,0.002
			c0.286-0.003,0.367,0.064,0.366,0.36c-0.01,6.478-0.007,12.954-0.007,19.433c0,0.458-0.062,0.404,0.405,0.404
			c3.254,0.002,6.509,0.006,9.763-0.006c0.314-0.002,0.383,0.087,0.38,0.389c-0.017,1.441-0.012,2.884-0.004,4.325
			c0.002,0.229-0.028,0.333-0.304,0.333c-5.228-0.01-10.453-0.01-15.68-0.002c-0.256,0.001-0.316-0.075-0.315-0.321
			c0.008-2.852,0.005-5.704,0.005-8.555c0-0.075,0.007-0.15-0.002-0.223c-0.01-0.079,0.046-0.188-0.049-0.229
			c-0.091-0.041-0.146,0.062-0.21,0.111c-1.504,1.171-3.007,2.346-4.51,3.519c-3.081,2.408-6.163,4.813-9.237,7.229
			c-0.196,0.155-0.304,0.119-0.477-0.017c-4.573-3.579-9.148-7.153-13.725-10.728c-0.279-0.219-0.272-0.215-0.379,0.111
			c-1.678,5.09-5.164,8.082-10.443,8.98c-0.597,0.102-1.204,0.113-1.807,0.113c-3.244,0.005-6.488,0.002-9.732,0.003
			c-0.114,0-0.229,0.019-0.346,0.027C0,18.487,0,10.069,0,1.652z M5.726,14.254c0,2.427,0.004,4.854-0.006,7.278
			c-0.001,0.245,0.058,0.319,0.311,0.317c1.378-0.013,2.755-0.002,4.133-0.007c1.683-0.005,3.149-0.584,4.391-1.71
			c3.048-2.765,3.4-7.773,0.771-10.941c-1.387-1.669-3.149-2.549-5.346-2.518C8.687,6.691,7.394,6.687,6.102,6.67
			C5.808,6.666,5.715,6.721,5.717,7.039C5.732,9.444,5.726,11.85,5.726,14.254z"/>
		<path fill-rule="evenodd" clip-rule="evenodd" fill="#FFFFFF" d="M112.006,14.248c0-3.976,0-7.949,0-11.926
			c0-0.468,0.2-0.67,0.663-0.67c0.604-0.001,1.21,0.026,1.812-0.01c0.464-0.027,0.701,0.196,0.863,0.579
			c0.817,1.917,1.637,3.835,2.453,5.752c2.229,5.229,4.456,10.456,6.687,15.683c0.057,0.133,0.062,0.313,0.293,0.318
			c0.249,0.005,0.257-0.191,0.317-0.332c2.472-5.791,4.938-11.584,7.407-17.377c0.568-1.333,1.141-2.665,1.706-4
			c0.177-0.42,0.433-0.657,0.934-0.624c0.591,0.041,1.187,0.01,1.78,0.011c0.447,0,0.657,0.204,0.657,0.646c0,1.876,0,3.752,0,5.628
			c0,6.075,0,12.149,0,18.223c0,0.524-0.213,0.733-0.748,0.734c-0.244,0-0.487,0-0.731,0c-0.476-0.001-0.717-0.239-0.717-0.709
			c0-6.668,0-13.336,0-20.004c0-0.074,0.01-0.149-0.002-0.222c-0.018-0.11,0.073-0.27-0.126-0.308
			c-0.176-0.032-0.235,0.074-0.296,0.215c-0.395,0.924-0.796,1.846-1.194,2.769c-2.535,5.879-5.07,11.758-7.604,17.638
			c-0.178,0.414-0.435,0.682-0.937,0.627c-0.294-0.033-0.597-0.033-0.889,0c-0.494,0.055-0.75-0.224-0.919-0.614
			c-1.003-2.312-1.995-4.626-2.991-6.939c-1.931-4.48-3.862-8.961-5.794-13.44c-0.047-0.109-0.06-0.254-0.235-0.258
			c-0.132-0.003-0.232,0.012-0.217,0.183c0.008,0.095,0,0.19,0,0.286c0,6.688,0,13.378,0,20.067c0,0.471-0.238,0.708-0.712,0.709
			c-0.265,0.001-0.529,0.001-0.795,0.001c-0.456-0.002-0.665-0.213-0.665-0.677C112.006,22.22,112.006,18.234,112.006,14.248z"/>
		<path fill-rule="evenodd" clip-rule="evenodd" fill="#FFFFFF" d="M69.133,14.248c0-4.08,0.003-8.161-0.007-12.242
			c0-0.289,0.071-0.364,0.361-0.361c1.675,0.016,3.35,0.014,5.024,0.001c0.282-0.003,0.364,0.062,0.363,0.356
			c-0.01,6.486-0.004,12.974-0.017,19.461c-0.001,0.336,0.1,0.389,0.404,0.388c3.265-0.011,6.528-0.003,9.794-0.013
			c0.289-0.001,0.37,0.07,0.367,0.365c-0.017,1.463-0.012,2.926-0.002,4.389c0,0.219-0.055,0.289-0.281,0.289
			c-5.247-0.007-10.494-0.007-15.74,0.003c-0.281,0-0.271-0.135-0.27-0.33C69.133,22.453,69.133,18.351,69.133,14.248z"/>
		<path fill-rule="evenodd" clip-rule="evenodd" fill="#FFFFFF" d="M91.097,14.247c0-3.964,0-7.928,0-11.892
			c0-0.502,0.201-0.704,0.703-0.704c4.949,0,9.899,0,14.849,0c0.486,0,0.669,0.179,0.669,0.657c0,0.17,0,0.34,0,0.509
			c-0.001,0.436-0.22,0.656-0.652,0.656c-4.229,0-8.459,0-12.688,0c-0.499,0-0.686,0.185-0.686,0.68c0,2.777,0,5.554,0,8.331
			c0,0.479,0.205,0.681,0.69,0.681c3.985,0,7.971,0,11.956,0c0.462,0,0.67,0.208,0.67,0.668c0,0.147,0,0.296,0,0.444
			c0,0.502-0.205,0.71-0.701,0.71c-3.964,0-7.929,0-11.893,0c-0.526,0-0.723,0.195-0.723,0.719c0,2.884,0,5.767,0,8.648
			c0,0.497,0.203,0.695,0.711,0.695c4.207,0,8.416,0,12.624,0c0.515,0,0.69,0.181,0.69,0.705c0,0.181,0.002,0.36,0,0.541
			c-0.004,0.345-0.245,0.585-0.596,0.586c-4.992,0.001-9.984,0.001-14.977,0c-0.395,0-0.648-0.268-0.648-0.679
			C91.097,22.218,91.097,18.232,91.097,14.247z"/>
		<path fill-rule="evenodd" clip-rule="evenodd" fill="#FFFFFF" d="M144.062,14.248c0.006,2.151,0.306,4.247,1.278,6.193
			c1.615,3.228,4.262,4.853,7.854,4.956c1.468,0.042,2.897-0.158,4.222-0.837c1.889-0.969,2.896-2.595,3.402-4.596
			c0.08-0.317,0.055-0.689,0.378-0.911c0.025-0.017,0.042-0.054,0.067-0.064c0.452-0.172,0.919-0.04,1.379-0.073
			c0.21-0.016,0.287,0.195,0.424,0.304c0.104,0.082,0.057,0.187,0.041,0.292c-0.565,3.923-2.979,6.573-6.869,7.41
			c-3.206,0.691-6.28,0.317-9.095-1.476c-2.207-1.405-3.623-3.432-4.456-5.885c-0.507-1.494-0.735-3.034-0.792-4.612
			c-0.079-2.193,0.143-4.343,0.938-6.394c1.6-4.129,4.592-6.563,9-7.16c2.436-0.33,4.804-0.037,7.003,1.123
			c2.487,1.311,3.838,3.435,4.276,6.177c0.037,0.227-0.213,0.518-0.462,0.523c-0.392,0.01-0.786,0.026-1.176-0.005
			c-0.318-0.025-0.482-0.258-0.553-0.561c-0.305-1.312-0.838-2.508-1.794-3.484c-1.038-1.061-2.322-1.644-3.767-1.892
			c-2.074-0.357-4.097-0.209-6.016,0.713c-2.269,1.092-3.678,2.937-4.504,5.264C144.269,10.867,144.057,12.541,144.062,14.248z"/>
	</g>
</g>
</svg>
