<?xml version="1.0" encoding="utf-8"?>
<!-- Generator: Adobe Illustrator 16.0.0, SVG Export Plug-In . SVG Version: 6.00 Build 0)  -->
<!DOCTYPE svg PUBLIC "-//W3C//DTD SVG 1.1//EN" "http://www.w3.org/Graphics/SVG/1.1/DTD/svg11.dtd">
<svg version="1.1" xmlns="http://www.w3.org/2000/svg"  x="0px" y="0px" width="185px"
	 height="37px" viewBox="0 0 185 37" enable-background="new 0 0 185 37" xml:space="preserve">
<g id="mlx">
	<g id="logo_x5F_square_x5F_blue-bg">
		<g id="op3_1_" display="none">
		</g>
		<g id="op4_1_" display="none">
		</g>
		<g id="op2_1_" display="none">
		</g>
		<g id="op1_1_">
			<g id="m">
			</g>
			<g>
				<g id="blocks_3_">
					<rect x="13.484" y="23.717" fill="#2C95DD" width="5" height="5"/>
					<rect x="13.484" y="17.717" fill="#2C95DD" width="5" height="5"/>
					<rect x="19.484" y="17.717" fill="#2C95DD" width="5" height="5"/>
					<rect x="13.484" y="29.717" fill="#2C95DD" width="5" height="5"/>
					<rect x="19.484" y="11.717" fill="#2C95DD" width="5" height="5"/>
					<rect x="7.484" y="29.717" fill="#2C95DD" width="5" height="5"/>
					<rect x="1.484" y="29.717" fill="#2C95DD" width="5" height="5"/>
					<rect x="7.484" y="23.717" fill="#2C95DD" width="5" height="5"/>
					<rect x="19.484" y="29.717" fill="#2C95DD" width="5" height="5"/>
					<rect x="19.484" y="23.717" fill="#2C95DD" width="5" height="5"/>
				</g>
				<path fill="#2C95DD" d="M83.051,25.285H64.209c0.271,1.762,0.999,3.164,2.181,4.204c1.182,1.041,2.688,1.561,4.522,1.561
					c2.191,0,4.074-0.813,5.65-2.438l4.941,2.461c-1.232,1.854-2.707,3.225-4.426,4.113s-3.76,1.333-6.123,1.333
					c-3.667,0-6.653-1.227-8.959-3.68c-2.307-2.454-3.459-5.526-3.459-9.218c0-3.782,1.149-6.923,3.448-9.422
					c2.299-2.499,5.181-3.748,8.647-3.748c3.681,0,6.674,1.25,8.98,3.748c2.306,2.499,3.459,5.799,3.459,9.9L83.051,25.285z
					 M77.186,20.385c-0.388-1.382-1.151-2.507-2.292-3.372c-1.141-0.866-2.464-1.299-3.971-1.299c-1.636,0-3.07,0.486-4.304,1.458
					c-0.775,0.608-1.492,1.679-2.152,3.213H77.186z"/>
				<path fill="#2C95DD" d="M88.508,1.951h5.865v9.138h3.48v5.354h-3.48V35.88h-5.865V16.443H85.5v-5.354h3.008V1.951z"/>
				<path fill="#2C95DD" d="M118.242,11.088h5.865V35.88h-5.865v-2.621c-1.145,1.155-2.293,1.987-3.444,2.495
					c-1.151,0.509-2.399,0.764-3.744,0.764c-3.019,0-5.63-1.242-7.833-3.726s-3.305-5.571-3.305-9.263
					c0-3.828,1.065-6.965,3.197-9.411c2.132-2.445,4.721-3.668,7.769-3.668c1.401,0,2.718,0.281,3.948,0.843
					c1.23,0.562,2.367,1.405,3.412,2.529V11.088z M112.076,16.193c-1.812,0-3.318,0.68-4.518,2.039
					c-1.199,1.36-1.799,3.104-1.799,5.229c0,2.142,0.61,3.904,1.83,5.286c1.221,1.383,2.724,2.074,4.508,2.074
					c1.842,0,3.369-0.68,4.582-2.04c1.213-1.359,1.82-3.14,1.82-5.343c0-2.158-0.607-3.904-1.82-5.241
					C115.467,16.861,113.933,16.193,112.076,16.193z"/>
				<path fill="#2C95DD" d="M129.973,1.518h3.008V35.88h-3.008V1.518z"/>
				<path fill="#2C95DD" d="M139.232,11.088h3.008v4.443c1.203-1.701,2.535-2.974,3.996-3.816c1.461-0.844,3.051-1.265,4.77-1.265
					c1.747,0,3.298,0.471,4.651,1.412c1.354,0.942,2.353,2.211,2.997,3.806s0.967,4.079,0.967,7.451V35.88h-3.008V24.054
					c0-2.855-0.111-4.763-0.335-5.72c-0.349-1.641-1.017-2.875-2.005-3.703c-0.988-0.827-2.278-1.241-3.868-1.241
					c-1.819,0-3.449,0.638-4.889,1.914c-1.439,1.275-2.389,2.856-2.847,4.739c-0.287,1.23-0.43,3.479-0.43,6.745v9.092h-3.008
					V11.088z"/>
				<path fill="#2C95DD" d="M163.402,11.088h3.609l6.217,9.07l6.151-9.07h3.616L175.04,22.8l8.966,13.081h-3.663l-7.115-10.413
					l-7.073,10.413h-3.59l8.856-13.057L163.402,11.088z"/>
				<g>
					<path fill="#2C95DD" d="M53.438,14.682c-0.552-1.321-1.568-2.393-2.83-3.213s-2.777-1.23-4.439-1.23
						c-1.605,0-3.112,0.381-4.467,1.14c-1.354,0.759-2.512,1.868-3.443,3.327c-0.717-1.459-1.669-2.568-2.845-3.327
						c-1.176-0.759-2.498-1.14-3.959-1.14c-1.448,0-2.699,0.289-3.925,0.866c-1.142,0.537-2.045,1.344-3.045,2.394v3.218h2.351
						c0.703-1,1.468-0.758,2.302-0.758c0.876,0,1.622,0.209,2.24,0.695c0.617,0.486,1.208,1.208,1.517,2.204
						s0.591,2.584,0.591,4.802v11.057h6V24.481c0-2.37,0.02-4.091,0.406-5.161c0.387-1.071,0.891-1.91,1.686-2.519
						c0.795-0.607,1.649-0.911,2.652-0.911c1.317,0,2.457,0.498,3.116,1.492c0.658,0.996,1.14,2.898,1.14,5.708v11.627h6V21.131
						C54.484,18.153,53.989,16.004,53.438,14.682z"/>
					<path fill="#2C95DD" d="M24.484,17.717v3.406c0-0.673,0.129-1.228,0.292-1.685c0.244-0.685,0.487-1.721,0.884-1.721H24.484z"/>
				</g>
			</g>
		</g>
	</g>
	<g id="favicon_x5F_square_x5F_blue_x5F_bg">
	</g>
</g>
<g id="Layer_9">
</g>
</svg>
