<?xml version="1.0" encoding="utf-8"?>
<!-- Generator: Adobe Illustrator 22.0.1, SVG Export Plug-In . SVG Version: 6.00 Build 0)  -->
<svg version="1.1" id="Layer_4" xmlns="http://www.w3.org/2000/svg" xmlns:xlink="http://www.w3.org/1999/xlink" x="0px" y="0px"
	 viewBox="0 0 102.7 35.2" style="enable-background:new 0 0 102.7 35.2;" xml:space="preserve">
<style type="text/css">
	.st0{fill:#287EA1;}
	.st1{font-family:'OpenSans-Semibold';}
	.st2{font-size:12px;}
	.st3{font-family:'OpenSans-Light';}
	.st4{font-family:'FontAwesome';}
</style>
<text transform="matrix(1 0 0 1 4.216 29.6522)" class="st0 st1 st2">DATA</text>
<text transform="matrix(1 0 0 1 37.5908 29.583)" class="st0 st3 st2">COMMONS</text>
<path class="st0" d="M53.2,18.2c-0.1-0.4-0.4-0.7-0.8-0.9v-3.5h-0.8v3.5c-0.4,0.1-0.7,0.5-0.8,0.9H5.4v0.6h45.4
	c0.1,0.5,0.6,0.9,1.2,0.9s1-0.4,1.2-0.9h45.4v-0.6H53.2z M52,19.2c-0.4,0-0.6-0.3-0.6-0.6c0-0.4,0.3-0.6,0.6-0.6
	c0.4,0,0.6,0.3,0.6,0.6C52.7,18.9,52.4,19.2,52,19.2z"/>
<g>
	<path class="st0" d="M58.1,12.8H46c-0.3,0-0.6,0.3-0.6,0.6v2.4c0,0.3,0.3,0.6,0.6,0.6h12.1c0.3,0,0.6-0.3,0.6-0.6v-2.4
		C58.6,13,58.4,12.8,58.1,12.8z"/>
	<path class="st0" d="M58.1,4.9H46c-0.3,0-0.6,0.3-0.6,0.6v2.4c0,0.3,0.3,0.6,0.6,0.6h12.1c0.3,0,0.6-0.3,0.6-0.6V5.4
		C58.6,5.1,58.4,4.9,58.1,4.9z M57.5,6.2h-0.8V5.4h0.8V6.2z"/>
	<path class="st0" d="M58.1,8.8H46c-0.3,0-0.6,0.3-0.6,0.6v2.4c0,0.3,0.3,0.6,0.6,0.6h12.1c0.3,0,0.6-0.3,0.6-0.6V9.4
		C58.6,9.1,58.4,8.8,58.1,8.8z"/>
</g>
<path class="st0" d="M38.5,6.9h-4.9V6.4c0,0-0.2-0.5-0.4-0.8c-0.3-0.3-1-0.4-1-0.4h-2.5c0,0-0.5,0.1-0.9,0.5
	c-0.4,0.4-0.4,1.1-0.4,1.1v6.8c0,0,0.1,0.6,0.5,0.9c0.4,0.3,0.9,0.4,0.9,0.4h8.7c0,0,0.5,0,0.9-0.4s0.4-0.9,0.4-0.9V8.3
	c0,0,0-0.6-0.4-0.9C39,7,38.5,6.9,38.5,6.9z"/>
<text transform="matrix(1 0 0 1 63.375 14.375)" class="st0 st4 st2"></text>
</svg>
