<svg xmlns="http://www.w3.org/2000/svg" viewBox="0 0 147.84 91.08"><defs><style>.cls-1,.cls-3,.cls-6,.cls-8,.cls-9{font-size:12px;}.cls-1,.cls-2,.cls-4,.cls-7,.cls-8,.cls-9{fill:#287ea1;}.cls-1,.cls-3{font-family:OpenSans-Semibold, Open Sans;}.cls-1,.cls-3,.cls-5{font-weight:700;}.cls-4{font-size:17px;font-family:OpenSans-Extrabold, Open Sans;}.cls-6,.cls-7,.cls-8{font-family:OpenSans-Light, Open Sans;}.cls-7{font-size:9.12px;}.cls-9{font-family:FontAwesome, FontAwesome;}</style></defs><title>datacommons_logo</title><g id="Layer_1" data-name="Layer 1"><text class="cls-1" transform="translate(48.62 23.56)">DATA COMMONS</text><g id="Layer_2" data-name="Layer 2"><path class="cls-2" d="M19.66-47.68c-1-2.18-3.76-1.67-3.76-1.67a3.59,3.59,0,0,0-1.84-4.83c-2.69-1.11-4,.72-4,.72.34-1.88-2.49-5.3-6.94-4.44s-3.83,6-3.83,6c-.69-.85-3.94-1.54-5.82,1.37S-6-44.39-6-44.39a3.06,3.06,0,0,0-1,5c1.42,1.58,4.78,1.55,4.78,1.55H.26v-4.75a2,2,0,0,1,.56-1.42,1.89,1.89,0,0,1,1.55-.61h2v-2.12H2.77l3.16-4.34.22-.18,3.33,4.52H7.88v3.93h2.84a2.77,2.77,0,0,1,1.65.58,2.37,2.37,0,0,1,.53,1.36v3H17.1v-5.85h2.55A4.73,4.73,0,0,0,19.66-47.68Z" transform="translate(32 58.04)"/><path class="cls-2" d="M11-42.38H6.13v-.5a2.5,2.5,0,0,0-.44-.83,2.19,2.19,0,0,0-1-.45H2.23a1.9,1.9,0,0,0-.91.47,1.82,1.82,0,0,0-.45,1.12v6.78a1.85,1.85,0,0,0,.49.92,2.48,2.48,0,0,0,.9.38h8.66a1.6,1.6,0,0,0,.95-.43,1.36,1.36,0,0,0,.42-.92V-41a1.59,1.59,0,0,0-.42-.91A2,2,0,0,0,11-42.38Z" transform="translate(32 58.04)"/><text class="cls-3" transform="translate(0 15.54)">1</text><text class="cls-3" transform="translate(0 47.54)">2</text><text class="cls-3" transform="translate(0 78.87)">3</text></g></g><g id="Layer_3" data-name="Layer 3"><text class="cls-4" transform="translate(68.22 44.94)"><tspan class="cls-5">DATA</tspan><tspan class="cls-6" x="47.21" y="0"> </tspan></text><text x="32" y="58.04"></text><text class="cls-7" transform="translate(68.97 53)">COMMONS</text><polygon class="cls-2" points="61.57 33.22 61.52 33.18 61.52 38.47 66.87 38.47 61.57 33.22"/><polygon class="cls-2" points="60.85 39.13 60.85 32.78 60.61 32.79 49.95 32.79 49.95 53.04 56.81 53.04 56.81 46.45 54.55 46.45 58.61 41.25 62.67 46.45 60.41 46.45 60.41 53.04 67.28 53.04 67.28 39.13 60.85 39.13"/></g><g id="Layer_4" data-name="Layer 4"><text class="cls-1" transform="translate(36.22 87.69)">DATA</text><text class="cls-8" transform="translate(69.59 87.62)">COMMONS</text><path class="cls-2" d="M53.22,18.22a1.22,1.22,0,0,0-.82-.86V13.83h-.75v3.53a1.24,1.24,0,0,0-.82.86H5.4v.62H50.84a1.22,1.22,0,0,0,2.37,0H98.65v-.62Zm-1.19,1a.65.65,0,1,1,.64-.65A.65.65,0,0,1,52,19.21Z" transform="translate(32 58.04)"/><rect class="cls-2" x="77.42" y="70.8" width="13.21" height="3.55" rx="0.57" ry="0.57"/><path class="cls-2" d="M58.07,4.88H46a.56.56,0,0,0-.57.56V7.86a.57.57,0,0,0,.57.57H58.07a.57.57,0,0,0,.56-.57V5.44A.56.56,0,0,0,58.07,4.88ZM57.46,6.2h-.83V5.37h.83Z" transform="translate(32 58.04)"/><rect class="cls-2" x="77.42" y="66.86" width="13.21" height="3.55" rx="0.57" ry="0.57"/><path class="cls-2" d="M38.47,6.9H33.61V6.4a2.71,2.71,0,0,0-.43-.83,2.39,2.39,0,0,0-1-.45H29.71a1.9,1.9,0,0,0-.91.47,1.82,1.82,0,0,0-.45,1.12v6.78a1.81,1.81,0,0,0,.5.92,2.22,2.22,0,0,0,.89.38H38.4a1.53,1.53,0,0,0,1-.43,1.36,1.36,0,0,0,.42-.92V8.26a1.59,1.59,0,0,0-.42-.91A2,2,0,0,0,38.47,6.9Z" transform="translate(32 58.04)"/><text class="cls-9" transform="translate(95.38 72.41)"></text></g></svg>